<svg xmlns="http://www.w3.org/2000/svg" viewBox="0 0 440 300" width="440" height="300">
  <defs>
    <linearGradient id="bgGrad" x1="0%" y1="0%" x2="100%" y2="100%">
      <stop offset="0%" style="stop-color:#f8fafc;stop-opacity:1" />
      <stop offset="100%" style="stop-color:#f1f5f9;stop-opacity:1" />
    </linearGradient>
    <linearGradient id="funnelGrad" x1="0%" y1="0%" x2="0%" y2="100%">
      <stop offset="0%" style="stop-color:#6366f1;stop-opacity:1" />
      <stop offset="100%" style="stop-color:#4f46e5;stop-opacity:1" />
    </linearGradient>
    <filter id="softShadow" x="-12%" y="-12%" width="124%" height="124%">
      <feDropShadow dx="0" dy="2" stdDeviation="3" flood-color="#0f172a" flood-opacity="0.08"/>
    </filter>
  </defs>

  <!-- Background -->
  <rect width="440" height="300" fill="url(#bgGrad)" rx="8"/>

  <!-- ===== LEFT: Chaotic documents and tags ===== -->
  <!-- Row 1 -->
  <rect x="12" y="20" width="38" height="24" rx="4" fill="#e2e8f0" opacity="0.85" transform="rotate(-7,31,32)"/>
  <rect x="16" y="26" width="22" height="3" rx="1.5" fill="#94a3b8" opacity="0.55"/>
  <rect x="16" y="32" width="15" height="3" rx="1.5" fill="#94a3b8" opacity="0.4"/>

  <rect x="58" y="16" width="34" height="22" rx="4" fill="#cbd5e1" opacity="0.8" transform="rotate(5,75,27)"/>
  <rect x="62" y="22" width="20" height="3" rx="1.5" fill="#94a3b8" opacity="0.55"/>
  <rect x="62" y="28" width="13" height="3" rx="1.5" fill="#94a3b8" opacity="0.4"/>

  <rect x="100" y="22" width="30" height="20" rx="4" fill="#dde3ef" opacity="0.8" transform="rotate(-3,115,32)"/>
  <rect x="104" y="27" width="17" height="2.5" rx="1" fill="#94a3b8" opacity="0.5"/>

  <!-- Tag chips row 1 -->
  <rect x="16" y="50" width="26" height="13" rx="6.5" fill="#a5b4fc" opacity="0.5" transform="rotate(6,29,56)"/>
  <rect x="50" y="47" width="22" height="12" rx="6" fill="#6ee7b7" opacity="0.45" transform="rotate(-8,61,53)"/>
  <rect x="80" y="51" width="28" height="13" rx="6.5" fill="#93c5fd" opacity="0.48" transform="rotate(4,94,57)"/>
  <rect x="115" y="46" width="20" height="12" rx="6" fill="#c4b5fd" opacity="0.45" transform="rotate(-5,125,52)"/>

  <!-- Row 2 -->
  <rect x="8" y="70" width="40" height="25" rx="4" fill="#e2e8f0" opacity="0.85" transform="rotate(7,28,82)"/>
  <rect x="12" y="76" width="24" height="3" rx="1.5" fill="#94a3b8" opacity="0.55"/>
  <rect x="12" y="82" width="17" height="3" rx="1.5" fill="#94a3b8" opacity="0.4"/>

  <rect x="55" y="67" width="34" height="22" rx="4" fill="#cbd5e1" opacity="0.8" transform="rotate(-5,72,78)"/>
  <rect x="59" y="73" width="20" height="3" rx="1.5" fill="#94a3b8" opacity="0.5"/>

  <rect x="97" y="72" width="32" height="20" rx="4" fill="#dde3ef" opacity="0.8" transform="rotate(5,113,82)"/>
  <rect x="101" y="78" width="18" height="2.5" rx="1" fill="#94a3b8" opacity="0.5"/>

  <!-- Tag chips row 2 -->
  <rect x="20" y="102" width="24" height="12" rx="6" fill="#fca5a5" opacity="0.4" transform="rotate(-6,32,108)"/>
  <rect x="52" y="99" width="28" height="13" rx="6.5" fill="#a5b4fc" opacity="0.5" transform="rotate(4,66,105)"/>
  <rect x="88" y="103" width="22" height="12" rx="6" fill="#6ee7b7" opacity="0.42" transform="rotate(-3,99,109)"/>
  <rect x="117" y="99" width="19" height="12" rx="6" fill="#fdba74" opacity="0.38" transform="rotate(6,126,105)"/>

  <!-- Row 3 -->
  <rect x="10" y="120" width="36" height="23" rx="4" fill="#cbd5e1" opacity="0.8" transform="rotate(-5,28,131)"/>
  <rect x="14" y="126" width="22" height="3" rx="1.5" fill="#94a3b8" opacity="0.55"/>

  <rect x="54" y="117" width="33" height="21" rx="4" fill="#e2e8f0" opacity="0.85" transform="rotate(6,70,127)"/>
  <rect x="58" y="123" width="19" height="2.5" rx="1" fill="#94a3b8" opacity="0.5"/>

  <rect x="95" y="120" width="30" height="20" rx="4" fill="#dde3ef" opacity="0.8" transform="rotate(-4,110,130)"/>
  <rect x="99" y="126" width="16" height="2.5" rx="1" fill="#94a3b8" opacity="0.45"/>

  <!-- Tag chips row 3 -->
  <rect x="16" y="148" width="27" height="13" rx="6.5" fill="#93c5fd" opacity="0.48" transform="rotate(5,29,154)"/>
  <rect x="51" y="145" width="21" height="12" rx="6" fill="#c4b5fd" opacity="0.48" transform="rotate(-7,61,151)"/>
  <rect x="80" y="149" width="25" height="13" rx="6.5" fill="#6ee7b7" opacity="0.44" transform="rotate(3,92,155)"/>
  <rect x="113" y="146" width="20" height="12" rx="6" fill="#a5b4fc" opacity="0.5" transform="rotate(-4,123,152)"/>

  <!-- Row 4 -->
  <rect x="8" y="167" width="38" height="24" rx="4" fill="#e2e8f0" opacity="0.85" transform="rotate(6,27,179)"/>
  <rect x="54" y="164" width="32" height="21" rx="4" fill="#cbd5e1" opacity="0.8" transform="rotate(-4,70,174)"/>
  <rect x="94" y="168" width="30" height="20" rx="4" fill="#dde3ef" opacity="0.8" transform="rotate(4,109,178)"/>

  <rect x="22" y="197" width="20" height="11" rx="5.5" fill="#c4b5fd" opacity="0.38" transform="rotate(7,32,202)"/>
  <rect x="60" y="194" width="24" height="11" rx="5.5" fill="#fdba74" opacity="0.34" transform="rotate(-5,72,199)"/>
  <rect x="100" y="197" width="18" height="11" rx="5.5" fill="#6ee7b7" opacity="0.38" transform="rotate(4,109,202)"/>

  <!-- Row 5 -->
  <rect x="11" y="215" width="36" height="22" rx="4" fill="#cbd5e1" opacity="0.8" transform="rotate(-5,29,226)"/>
  <rect x="55" y="212" width="30" height="20" rx="4" fill="#e2e8f0" opacity="0.85" transform="rotate(5,70,222)"/>
  <rect x="93" y="215" width="32" height="21" rx="4" fill="#dde3ef" opacity="0.8" transform="rotate(-5,109,225)"/>

  <rect x="17" y="244" width="26" height="13" rx="6.5" fill="#fca5a5" opacity="0.4" transform="rotate(4,30,250)"/>
  <rect x="51" y="241" width="22" height="12" rx="6" fill="#6ee7b7" opacity="0.42" transform="rotate(-5,62,247)"/>
  <rect x="81" y="245" width="28" height="13" rx="6.5" fill="#a5b4fc" opacity="0.5" transform="rotate(4,95,251)"/>
  <rect x="116" y="241" width="20" height="12" rx="6" fill="#93c5fd" opacity="0.48" transform="rotate(-3,126,247)"/>

  <!-- Vertical separator -->
  <line x1="145" y1="20" x2="145" y2="280" stroke="#cbd5e1" stroke-width="1" opacity="0.3" stroke-dasharray="4,5"/>

  <!-- ===== CENTER: NLP Funnel ===== -->
  <ellipse cx="210" cy="150" rx="28" ry="60" fill="#6366f1" opacity="0.06"/>

  <!-- Funnel body -->
  <polygon points="190,65 230,65 223,180 197,180" fill="url(#funnelGrad)" opacity="0.92"/>
  <!-- Funnel top rim -->
  <ellipse cx="210" cy="65" rx="20" ry="5" fill="#818cf8" opacity="0.6"/>
  <!-- Funnel highlight -->
  <polygon points="192,68 208,68 205,120 196,120" fill="white" opacity="0.12"/>

  <!-- Spout -->
  <rect x="203" y="180" width="14" height="20" rx="3" fill="#4338ca" opacity="0.85"/>
  <polygon points="203,200 217,200 213,207 207,207" fill="#3730a3" opacity="0.8"/>

  <!-- Processing cog -->
  <circle cx="210" cy="120" r="13" fill="none" stroke="#a5b4fc" stroke-width="1.5" opacity="0.5"/>
  <circle cx="210" cy="120" r="8" fill="none" stroke="#c7d2fe" stroke-width="1.2" opacity="0.45"/>
  <line x1="210" y1="105" x2="210" y2="101" stroke="#a5b4fc" stroke-width="2.2" stroke-linecap="round" opacity="0.5"/>
  <line x1="210" y1="135" x2="210" y2="139" stroke="#a5b4fc" stroke-width="2.2" stroke-linecap="round" opacity="0.5"/>
  <line x1="195" y1="120" x2="191" y2="120" stroke="#a5b4fc" stroke-width="2.2" stroke-linecap="round" opacity="0.5"/>
  <line x1="225" y1="120" x2="229" y2="120" stroke="#a5b4fc" stroke-width="2.2" stroke-linecap="round" opacity="0.5"/>

  <!-- Particles entering funnel -->
  <circle cx="155" cy="85" r="2.5" fill="#94a3b8" opacity="0.45"/>
  <circle cx="162" cy="115" r="2" fill="#94a3b8" opacity="0.38"/>
  <circle cx="153" cy="145" r="2.5" fill="#94a3b8" opacity="0.42"/>
  <circle cx="160" cy="175" r="2" fill="#94a3b8" opacity="0.35"/>

  <!-- ===== Flow paths to E/S/G ===== -->
  <path d="M217,198 C240,195 248,90 262,72" stroke="#10b981" stroke-width="2" fill="none" opacity="0.55" stroke-dasharray="5,3"/>
  <polygon points="260,66 266,74 258,76" fill="#10b981" opacity="0.7"/>

  <path d="M217,202 C245,200 255,155 262,148" stroke="#3b82f6" stroke-width="2" fill="none" opacity="0.55" stroke-dasharray="5,3"/>
  <polygon points="260,142 266,150 258,152" fill="#3b82f6" opacity="0.7"/>

  <path d="M217,206 C240,210 252,230 262,230" stroke="#8b5cf6" stroke-width="2" fill="none" opacity="0.55" stroke-dasharray="5,3"/>
  <polygon points="260,224 266,232 258,234" fill="#8b5cf6" opacity="0.7"/>

  <!-- ===== RIGHT: E cluster (Environmental, green) ===== -->
  <rect x="270" y="18" width="158" height="82" rx="10" fill="#f0fdf9" stroke="#10b981" stroke-width="1.5" filter="url(#softShadow)"/>
  <!-- Header -->
  <rect x="270" y="18" width="158" height="20" rx="10" fill="#10b981" opacity="0.88"/>
  <rect x="270" y="30" width="158" height="8" fill="#10b981" opacity="0.88"/>
  <circle cx="284" cy="28" r="5" fill="white" opacity="0.8"/>
  <circle cx="284" cy="28" r="2.5" fill="#10b981" opacity="0.65"/>
  <!-- Cards -->
  <rect x="280" y="44" width="52" height="26" rx="4" fill="white" stroke="#6ee7b7" stroke-width="1"/>
  <rect x="285" y="50" width="30" height="3" rx="1" fill="#10b981" opacity="0.65"/>
  <rect x="285" y="56" width="22" height="2.5" rx="1" fill="#6ee7b7" opacity="0.5"/>
  <rect x="285" y="61" width="26" height="2.5" rx="1" fill="#6ee7b7" opacity="0.4"/>
  <rect x="340" y="44" width="52" height="26" rx="4" fill="white" stroke="#6ee7b7" stroke-width="1"/>
  <rect x="345" y="50" width="28" height="3" rx="1" fill="#10b981" opacity="0.65"/>
  <rect x="345" y="56" width="20" height="2.5" rx="1" fill="#6ee7b7" opacity="0.5"/>
  <rect x="345" y="61" width="24" height="2.5" rx="1" fill="#6ee7b7" opacity="0.4"/>
  <!-- Summary bars -->
  <rect x="280" y="76" width="110" height="7" rx="3.5" fill="#d1fae5" opacity="0.7"/>
  <rect x="280" y="87" width="80" height="7" rx="3.5" fill="#d1fae5" opacity="0.5"/>

  <!-- ===== RIGHT: S cluster (Social, blue) ===== -->
  <rect x="270" y="112" width="158" height="82" rx="10" fill="#eff6ff" stroke="#3b82f6" stroke-width="1.5" filter="url(#softShadow)"/>
  <!-- Header -->
  <rect x="270" y="112" width="158" height="20" rx="10" fill="#3b82f6" opacity="0.88"/>
  <rect x="270" y="124" width="158" height="8" fill="#3b82f6" opacity="0.88"/>
  <circle cx="284" cy="122" r="5" fill="white" opacity="0.8"/>
  <circle cx="284" cy="122" r="2.5" fill="#3b82f6" opacity="0.65"/>
  <!-- Cards -->
  <rect x="280" y="138" width="52" height="26" rx="4" fill="white" stroke="#93c5fd" stroke-width="1"/>
  <rect x="285" y="144" width="28" height="3" rx="1" fill="#3b82f6" opacity="0.65"/>
  <rect x="285" y="150" width="20" height="2.5" rx="1" fill="#93c5fd" opacity="0.5"/>
  <rect x="285" y="155" width="24" height="2.5" rx="1" fill="#93c5fd" opacity="0.4"/>
  <rect x="340" y="138" width="52" height="26" rx="4" fill="white" stroke="#93c5fd" stroke-width="1"/>
  <rect x="345" y="144" width="30" height="3" rx="1" fill="#3b82f6" opacity="0.65"/>
  <rect x="345" y="150" width="22" height="2.5" rx="1" fill="#93c5fd" opacity="0.5"/>
  <rect x="345" y="155" width="26" height="2.5" rx="1" fill="#93c5fd" opacity="0.4"/>
  <!-- Summary bars -->
  <rect x="280" y="170" width="110" height="7" rx="3.5" fill="#dbeafe" opacity="0.7"/>
  <rect x="280" y="181" width="76" height="7" rx="3.5" fill="#dbeafe" opacity="0.5"/>

  <!-- ===== RIGHT: G cluster (Governance, purple) ===== -->
  <rect x="270" y="206" width="158" height="82" rx="10" fill="#f5f3ff" stroke="#8b5cf6" stroke-width="1.5" filter="url(#softShadow)"/>
  <!-- Header -->
  <rect x="270" y="206" width="158" height="20" rx="10" fill="#8b5cf6" opacity="0.88"/>
  <rect x="270" y="218" width="158" height="8" fill="#8b5cf6" opacity="0.88"/>
  <circle cx="284" cy="216" r="5" fill="white" opacity="0.8"/>
  <circle cx="284" cy="216" r="2.5" fill="#8b5cf6" opacity="0.65"/>
  <!-- Cards -->
  <rect x="280" y="232" width="52" height="26" rx="4" fill="white" stroke="#c4b5fd" stroke-width="1"/>
  <rect x="285" y="238" width="30" height="3" rx="1" fill="#8b5cf6" opacity="0.65"/>
  <rect x="285" y="244" width="22" height="2.5" rx="1" fill="#c4b5fd" opacity="0.5"/>
  <rect x="285" y="249" width="26" height="2.5" rx="1" fill="#c4b5fd" opacity="0.4"/>
  <rect x="340" y="232" width="52" height="26" rx="4" fill="white" stroke="#c4b5fd" stroke-width="1"/>
  <rect x="345" y="238" width="26" height="3" rx="1" fill="#8b5cf6" opacity="0.65"/>
  <rect x="345" y="244" width="18" height="2.5" rx="1" fill="#c4b5fd" opacity="0.5"/>
  <rect x="345" y="249" width="22" height="2.5" rx="1" fill="#c4b5fd" opacity="0.4"/>
  <!-- Summary bars -->
  <rect x="280" y="264" width="100" height="7" rx="3.5" fill="#ede9fe" opacity="0.7"/>
  <rect x="280" y="275" width="72" height="7" rx="3.5" fill="#ede9fe" opacity="0.5"/>
</svg>
